<svg xmlns="http://www.w3.org/2000/svg" xmlns:xlink="http://www.w3.org/1999/xlink" version="1.1" id="Layer_1" x="0px" y="0px" viewBox="0 0 503.805 503.805" style="enable-background:new 0 0 503.805 503.805;" xml:space="preserve" width="512" height="512"><g><g>
	<g>
		<path d="M503.569,7.736c-0.436-4.23-3.97-7.479-8.226-7.537c-4.381-0.067-71.638-0.411-86.293,0    c-23.988,0.688-44.729,14.311-52.828,34.698c-6.841,17.207-2.862,35.555,10.66,49.068c8.234,8.234,18.482,11.776,28.613,12.473    L139.218,352.723h-80.46c-2.233,0-4.365,0.881-5.934,2.459L2.464,405.543c-2.401,2.401-3.122,6.001-1.821,9.14    c1.293,3.139,4.365,5.187,7.756,5.187h75.541v75.541c0,3.391,2.04,6.455,5.179,7.747c1.041,0.436,2.132,0.646,3.215,0.646    c2.182,0,4.331-0.856,5.934-2.459l50.361-50.361c1.57-1.578,2.459-3.71,2.459-5.934v-80.46l256.487-256.495    c0.806,10.626,4.633,21.185,12.875,29.427c9.048,9.057,20.287,13.765,31.912,13.765c5.766,0,11.625-1.158,17.366-3.517    c20.119-8.259,33.742-29.402,33.884-52.61C503.619,94.339,504.064,12.587,503.569,7.736z" data-original="#000000" class="active-path" data-old_color="#000000" style="fill:#FFFFFF"></path>
	</g>
</g></g> </svg>